%TF.GenerationSoftware,KiCad,Pcbnew,10.0.5*%
%TF.CreationDate,2026-07-22T15:52:02-07:00*%
%TF.ProjectId,PiezoPhone,5069657a-6f50-4686-9f6e-652e6b696361,rev?*%
%TF.SameCoordinates,Original*%
%TF.FileFunction,Soldermask,Bot*%
%TF.FilePolarity,Negative*%
%FSLAX46Y46*%
G04 Gerber Fmt 4.6, Leading zero omitted, Abs format (unit mm)*
G04 Created by KiCad (PCBNEW 10.0.5) date 2026-07-22 15:52:02*
%MOMM*%
%LPD*%
G01*
G04 APERTURE LIST*
G04 Aperture macros list*
%AMRoundRect*
0 Rectangle with rounded corners*
0 $1 Rounding radius*
0 $2 $3 $4 $5 $6 $7 $8 $9 X,Y pos of 4 corners*
0 Add a 4 corners polygon primitive as box body*
4,1,4,$2,$3,$4,$5,$6,$7,$8,$9,$2,$3,0*
0 Add four circle primitives for the rounded corners*
1,1,$1+$1,$2,$3*
1,1,$1+$1,$4,$5*
1,1,$1+$1,$6,$7*
1,1,$1+$1,$8,$9*
0 Add four rect primitives between the rounded corners*
20,1,$1+$1,$2,$3,$4,$5,0*
20,1,$1+$1,$4,$5,$6,$7,0*
20,1,$1+$1,$6,$7,$8,$9,0*
20,1,$1+$1,$8,$9,$2,$3,0*%
G04 Aperture macros list end*
%ADD10C,1.600000*%
%ADD11RoundRect,0.250000X0.550000X-0.550000X0.550000X0.550000X-0.550000X0.550000X-0.550000X-0.550000X0*%
%ADD12RoundRect,0.250000X1.550000X-0.750000X1.550000X0.750000X-1.550000X0.750000X-1.550000X-0.750000X0*%
%ADD13O,3.600000X2.000000*%
%ADD14RoundRect,0.249999X-0.850001X-0.850001X0.850001X-0.850001X0.850001X0.850001X-0.850001X0.850001X0*%
%ADD15C,2.200000*%
%ADD16C,2.800000*%
%ADD17RoundRect,0.102000X0.580000X0.580000X-0.580000X0.580000X-0.580000X-0.580000X0.580000X-0.580000X0*%
%ADD18C,1.364000*%
%ADD19RoundRect,0.250000X0.550000X0.550000X-0.550000X0.550000X-0.550000X-0.550000X0.550000X-0.550000X0*%
%ADD20RoundRect,0.249999X0.850001X0.850001X-0.850001X0.850001X-0.850001X-0.850001X0.850001X-0.850001X0*%
%ADD21RoundRect,0.250000X-0.625000X0.350000X-0.625000X-0.350000X0.625000X-0.350000X0.625000X0.350000X0*%
%ADD22O,1.750000X1.200000*%
%ADD23RoundRect,0.250000X0.550000X-0.950000X0.550000X0.950000X-0.550000X0.950000X-0.550000X-0.950000X0*%
%ADD24O,1.600000X2.400000*%
%ADD25C,2.400000*%
%ADD26C,1.701800*%
%ADD27O,1.320800X2.006600*%
%ADD28O,2.006600X1.320800*%
%ADD29R,1.600000X1.600000*%
%ADD30O,1.600000X1.600000*%
%TA.AperFunction,Profile*%
%ADD31C,0.100000*%
%TD*%
G04 APERTURE END LIST*
D10*
%TO.C,C11*%
X103124000Y-88860000D03*
X103124000Y-83860000D03*
%TD*%
D11*
%TO.C,C12*%
X116332000Y-87057112D03*
D10*
X116332000Y-84557112D03*
%TD*%
%TO.C,R7*%
X76200000Y-120650000D03*
X91440000Y-120650000D03*
%TD*%
D12*
%TO.C,J6*%
X68580000Y-112776000D03*
D13*
X68580000Y-107776000D03*
%TD*%
D10*
%TO.C,R1*%
X76200000Y-36830000D03*
X91440000Y-36830000D03*
%TD*%
D14*
%TO.C,D11*%
X81280000Y-114300000D03*
D15*
X91440000Y-114300000D03*
%TD*%
D10*
%TO.C,C5*%
X76200000Y-96520000D03*
X76200000Y-101520000D03*
%TD*%
D11*
%TO.C,C9*%
X109220000Y-87057113D03*
D10*
X109220000Y-84557113D03*
%TD*%
D16*
%TO.C,TP3*%
X123444000Y-39624000D03*
%TD*%
%TO.C,TP1*%
X132588000Y-39624000D03*
%TD*%
D10*
%TO.C,C3*%
X76200000Y-68580000D03*
X76200000Y-73580000D03*
%TD*%
%TO.C,R9*%
X132740000Y-94488000D03*
X117500000Y-94488000D03*
%TD*%
D12*
%TO.C,J4*%
X68580000Y-85090000D03*
D13*
X68580000Y-80090000D03*
%TD*%
D10*
%TO.C,C7*%
X76200000Y-124460000D03*
X76200000Y-129460000D03*
%TD*%
D14*
%TO.C,D3*%
X81280000Y-58420000D03*
D15*
X91440000Y-58420000D03*
%TD*%
D10*
%TO.C,C2*%
X76200000Y-54610000D03*
X76200000Y-59610000D03*
%TD*%
D11*
%TO.C,C17*%
X127500000Y-87500000D03*
D10*
X127500000Y-84000000D03*
%TD*%
D17*
%TO.C,RV1*%
X110236000Y-122606000D03*
D18*
X107696000Y-122606000D03*
X105156000Y-122606000D03*
%TD*%
D14*
%TO.C,D9*%
X81280000Y-100330000D03*
D15*
X91440000Y-100330000D03*
%TD*%
D19*
%TO.C,SW1*%
X133350000Y-52578000D03*
D10*
X133350000Y-50038000D03*
X133350000Y-47498000D03*
X133350000Y-44958000D03*
X125730000Y-44958000D03*
X125730000Y-47498000D03*
X125730000Y-50038000D03*
X125730000Y-52578000D03*
%TD*%
D20*
%TO.C,D6*%
X91440000Y-68580000D03*
D15*
X81280000Y-68580000D03*
%TD*%
D21*
%TO.C,J9*%
X133096000Y-58452000D03*
D22*
X133096000Y-60452000D03*
%TD*%
D20*
%TO.C,D14*%
X91440000Y-124460000D03*
D15*
X81280000Y-124460000D03*
%TD*%
D14*
%TO.C,D5*%
X81280000Y-72390000D03*
D15*
X91440000Y-72390000D03*
%TD*%
D10*
%TO.C,R5*%
X76200000Y-92710000D03*
X91440000Y-92710000D03*
%TD*%
D16*
%TO.C,TP4*%
X97028000Y-40132000D03*
%TD*%
D10*
%TO.C,R2*%
X76200000Y-50800000D03*
X91440000Y-50800000D03*
%TD*%
D11*
%TO.C,C13*%
X110236000Y-111441113D03*
D10*
X110236000Y-108941113D03*
%TD*%
%TO.C,C4*%
X76200000Y-82550000D03*
X76200000Y-87550000D03*
%TD*%
D23*
%TO.C,U1*%
X118618000Y-112522000D03*
D24*
X121158000Y-112522000D03*
X123698000Y-112522000D03*
X126238000Y-112522000D03*
X126238000Y-104902000D03*
X123698000Y-104902000D03*
X121158000Y-104902000D03*
X118618000Y-104902000D03*
%TD*%
D10*
%TO.C,R4*%
X76200000Y-78740000D03*
X91440000Y-78740000D03*
%TD*%
D12*
%TO.C,J7*%
X68580000Y-127000000D03*
D13*
X68580000Y-122000000D03*
%TD*%
D20*
%TO.C,D2*%
X91440000Y-40640000D03*
D15*
X81280000Y-40640000D03*
%TD*%
D16*
%TO.C,TP2*%
X128016000Y-39624000D03*
%TD*%
D12*
%TO.C,J1*%
X68580000Y-43180000D03*
D13*
X68580000Y-38180000D03*
%TD*%
D10*
%TO.C,C6*%
X76200000Y-110490000D03*
X76200000Y-115490000D03*
%TD*%
D25*
%TO.C,FB2*%
X109220000Y-91694000D03*
X109220000Y-104394000D03*
%TD*%
D10*
%TO.C,R6*%
X76200000Y-106680000D03*
X91440000Y-106680000D03*
%TD*%
D12*
%TO.C,J2*%
X68580000Y-57150000D03*
D13*
X68580000Y-52150000D03*
%TD*%
D20*
%TO.C,D8*%
X91440000Y-82875000D03*
D15*
X81280000Y-82875000D03*
%TD*%
D12*
%TO.C,J5*%
X68580000Y-99060000D03*
D13*
X68580000Y-94060000D03*
%TD*%
D11*
%TO.C,C15*%
X132080000Y-105116000D03*
D10*
X132080000Y-102616000D03*
%TD*%
D20*
%TO.C,D4*%
X91440000Y-54610000D03*
D15*
X81280000Y-54610000D03*
%TD*%
D25*
%TO.C,FB1*%
X103124000Y-104394000D03*
X103124000Y-91694000D03*
%TD*%
D26*
%TO.C,J8*%
X131064000Y-66548000D03*
X128563999Y-66548000D03*
X123564002Y-71548000D03*
X131064000Y-76548000D03*
X128563999Y-76548000D03*
D27*
X128563999Y-71548000D03*
D28*
X123564002Y-66548000D03*
X123564002Y-76548000D03*
X123564002Y-69048000D03*
X123564002Y-74048000D03*
%TD*%
D12*
%TO.C,J3*%
X68580000Y-71120000D03*
D13*
X68580000Y-66120000D03*
%TD*%
D10*
%TO.C,R8*%
X132740000Y-99060000D03*
X117500000Y-99060000D03*
%TD*%
D14*
%TO.C,D7*%
X81280000Y-86360000D03*
D15*
X91440000Y-86360000D03*
%TD*%
D10*
%TO.C,C1*%
X76200000Y-40640000D03*
X76200000Y-45640000D03*
%TD*%
D14*
%TO.C,D1*%
X81280000Y-44450000D03*
D15*
X91440000Y-44450000D03*
%TD*%
D10*
%TO.C,C14*%
X103124000Y-107736000D03*
X103124000Y-112736000D03*
%TD*%
D20*
%TO.C,D10*%
X91440000Y-96338412D03*
D15*
X81280000Y-96338412D03*
%TD*%
D10*
%TO.C,C16*%
X117896000Y-90424000D03*
X122896000Y-90424000D03*
%TD*%
D29*
%TO.C,A1*%
X117846000Y-77470000D03*
D30*
X117846000Y-74930000D03*
X117846000Y-72390000D03*
X117846000Y-69850000D03*
X117846000Y-67310000D03*
X117846000Y-64770000D03*
X117846000Y-62230000D03*
X117846000Y-59690000D03*
X117846000Y-57150000D03*
X117846000Y-54610000D03*
X117846000Y-52070000D03*
X117846000Y-49530000D03*
X117846000Y-46990000D03*
X117846000Y-44450000D03*
X117846000Y-41910000D03*
X102606000Y-41910000D03*
X102606000Y-44450000D03*
X102606000Y-46990000D03*
X102606000Y-49530000D03*
X102606000Y-52070000D03*
X102606000Y-54610000D03*
X102606000Y-57150000D03*
X102606000Y-59690000D03*
X102606000Y-62230000D03*
X102606000Y-64770000D03*
X102606000Y-67310000D03*
X102606000Y-69850000D03*
X102606000Y-72390000D03*
X102606000Y-74930000D03*
X102606000Y-77470000D03*
%TD*%
D10*
%TO.C,R3*%
X76200000Y-64770000D03*
X91440000Y-64770000D03*
%TD*%
D20*
%TO.C,D12*%
X91440000Y-110490000D03*
D15*
X81280000Y-110490000D03*
%TD*%
D14*
%TO.C,D13*%
X81280000Y-128270000D03*
D15*
X91440000Y-128270000D03*
%TD*%
D31*
X61468000Y-32500000D02*
X136144000Y-32500000D01*
X136144000Y-132500000D01*
X61468000Y-132500000D01*
X61468000Y-32500000D01*
M02*
