M48
; DRILL file KiCad 10.0.5 date 2026-07-22T15:52:26
; FORMAT={-:-/ absolute / metric / decimal}
; #@! TF.CreationDate,2026-07-22T15:52:26-07:00
; #@! TF.GenerationSoftware,Kicad,Pcbnew,10.0.5
; #@! TF.FileFunction,Plated,1,2,PTH
FMAT,2
METRIC
; #@! TA.AperFunction,Plated,PTH,ComponentDrill
T1C0.750
; #@! TA.AperFunction,Plated,PTH,ComponentDrill
T2C0.760
; #@! TA.AperFunction,Plated,PTH,ComponentDrill
T3C0.800
; #@! TA.AperFunction,Plated,PTH,ComponentDrill
T4C0.813
; #@! TA.AperFunction,Plated,PTH,ComponentDrill
T5C1.000
; #@! TA.AperFunction,Plated,PTH,ComponentDrill
T6C1.100
; #@! TA.AperFunction,Plated,PTH,ComponentDrill
T7C1.200
; #@! TA.AperFunction,Plated,PTH,ComponentDrill
T8C1.400
; #@! TA.AperFunction,Plated,PTH,ComponentDrill
T9C1.600
%
G90
G05
T1
X133.096Y-58.452
X133.096Y-60.452
T2
X105.156Y-122.606
X107.696Y-122.606
X110.236Y-122.606
T3
X76.2Y-36.83
X76.2Y-40.64
X76.2Y-45.64
X76.2Y-50.8
X76.2Y-54.61
X76.2Y-59.61
X76.2Y-64.77
X76.2Y-68.58
X76.2Y-73.58
X76.2Y-78.74
X76.2Y-82.55
X76.2Y-87.55
X76.2Y-92.71
X76.2Y-96.52
X76.2Y-101.52
X76.2Y-106.68
X76.2Y-110.49
X76.2Y-115.49
X76.2Y-120.65
X76.2Y-124.46
X76.2Y-129.46
X91.44Y-36.83
X91.44Y-50.8
X91.44Y-64.77
X91.44Y-78.74
X91.44Y-92.71
X91.44Y-106.68
X91.44Y-120.65
X103.124Y-83.86
X103.124Y-88.86
X103.124Y-107.736
X103.124Y-112.736
X109.22Y-84.557
X109.22Y-87.057
X110.236Y-108.941
X110.236Y-111.441
X116.332Y-84.557
X116.332Y-87.057
X117.5Y-94.488
X117.5Y-99.06
X117.896Y-90.424
X118.618Y-104.902
X118.618Y-112.522
X121.158Y-104.902
X121.158Y-112.522
X122.896Y-90.424
X123.698Y-104.902
X123.698Y-112.522
X125.73Y-44.958
X125.73Y-47.498
X125.73Y-50.038
X125.73Y-52.578
X126.238Y-104.902
X126.238Y-112.522
X127.5Y-84.0
X127.5Y-87.5
X132.08Y-102.616
X132.08Y-105.116
X132.74Y-94.488
X132.74Y-99.06
X133.35Y-44.958
X133.35Y-47.498
X133.35Y-50.038
X133.35Y-52.578
T5
X102.606Y-41.91
X102.606Y-44.45
X102.606Y-46.99
X102.606Y-49.53
X102.606Y-52.07
X102.606Y-54.61
X102.606Y-57.15
X102.606Y-59.69
X102.606Y-62.23
X102.606Y-64.77
X102.606Y-67.31
X102.606Y-69.85
X102.606Y-72.39
X102.606Y-74.93
X102.606Y-77.47
X117.846Y-41.91
X117.846Y-44.45
X117.846Y-46.99
X117.846Y-49.53
X117.846Y-52.07
X117.846Y-54.61
X117.846Y-57.15
X117.846Y-59.69
X117.846Y-62.23
X117.846Y-64.77
X117.846Y-67.31
X117.846Y-69.85
X117.846Y-72.39
X117.846Y-74.93
X117.846Y-77.47
T6
X81.28Y-40.64
X81.28Y-44.45
X81.28Y-54.61
X81.28Y-58.42
X81.28Y-68.58
X81.28Y-72.39
X81.28Y-82.875
X81.28Y-86.36
X81.28Y-96.338
X81.28Y-100.33
X81.28Y-110.49
X81.28Y-114.3
X81.28Y-124.46
X81.28Y-128.27
X91.44Y-40.64
X91.44Y-44.45
X91.44Y-54.61
X91.44Y-58.42
X91.44Y-68.58
X91.44Y-72.39
X91.44Y-82.875
X91.44Y-86.36
X91.44Y-96.338
X91.44Y-100.33
X91.44Y-110.49
X91.44Y-114.3
X91.44Y-124.46
X91.44Y-128.27
T7
X103.124Y-91.694
X103.124Y-104.394
X109.22Y-91.694
X109.22Y-104.394
T8
X68.58Y-38.18
X68.58Y-43.18
X68.58Y-52.15
X68.58Y-57.15
X68.58Y-66.12
X68.58Y-71.12
X68.58Y-80.09
X68.58Y-85.09
X68.58Y-94.06
X68.58Y-99.06
X68.58Y-107.776
X68.58Y-112.776
X68.58Y-122.0
X68.58Y-127.0
T9
X97.028Y-40.132
X123.444Y-39.624
X128.016Y-39.624
X132.588Y-39.624
T4
X123.221Y-66.548G85X123.907Y-66.548
G05
X123.221Y-69.048G85X123.907Y-69.048
G05
X123.221Y-74.048G85X123.907Y-74.048
G05
X123.221Y-76.548G85X123.907Y-76.548
G05
X128.564Y-71.205G85X128.564Y-71.891
G05
M30
